HIERARCHY
ROOT hip
{
  OFFSET 0 0 0
  CHANNELS 6 Xposition Yposition Zposition Zrotation Yrotation Xrotation
  JOINT abdomen
  {
    OFFSET 0 20.6881 -0.73152
    CHANNELS 3 Zrotation Xrotation Yrotation
    JOINT chest
    {
      OFFSET 0 11.7043 -0.48768
      CHANNELS 3 Zrotation Xrotation Yrotation
      JOINT neck
      {
        OFFSET 0 22.1894 -2.19456
        CHANNELS 3 Zrotation Xrotation Yrotation
        JOINT head
        {
          OFFSET -0.24384 7.07133 1.2192
          CHANNELS 3 Zrotation Xrotation Yrotation
          JOINT leftEye
          {
            OFFSET 4.14528 8.04674 8.04672
            CHANNELS 3 Zrotation Xrotation Yrotation
            End Site
            {
              OFFSET 1 0 0
            }
          }
          JOINT rightEye
          {
            OFFSET -3.6576 8.04674 8.04672
            CHANNELS 3 Zrotation Xrotation Yrotation
            End Site
            {
              OFFSET 1 0 0
            }
          }
        }
      }
      JOINT rCollar
      {
        OFFSET -2.68224 19.2634 -4.8768
        CHANNELS 3 Zrotation Xrotation Yrotation
        JOINT rShldr
        {
          OFFSET -8.77824 -1.95073 1.46304
          CHANNELS 3 Zrotation Xrotation Yrotation
          JOINT rForeArm
          {
            OFFSET -28.1742 -1.7115 0.48768
            CHANNELS 3 Zrotation Xrotation Yrotation
            JOINT rHand
            {
              OFFSET -22.5879 0.773209 7.07136
              CHANNELS 3 Zrotation Xrotation Yrotation
              JOINT rThumb1
              {
                OFFSET -1.2192 -0.487915 3.41376
                CHANNELS 3 Zrotation Xrotation Yrotation
                JOINT rThumb2
                {
                  OFFSET -3.37035 -0.52449 3.41376
                  CHANNELS 3 Zrotation Xrotation Yrotation
                  End Site
                  {
                    OFFSET -1.78271 -1.18214 1.43049
                  }
                }
              }
              JOINT rIndex1
              {
                OFFSET -7.75947 0.938293 5.60832
                CHANNELS 3 Zrotation Xrotation Yrotation
                JOINT rIndex2
                {
                  OFFSET -2.54057 -0.884171 1.56538
                  CHANNELS 3 Zrotation Xrotation Yrotation
                  End Site
                  {
                    OFFSET -1.62519 -0.234802 1.16502
                  }
                }
              }
              JOINT rMid1
              {
                OFFSET -8.24714 1.18213 3.41376
                CHANNELS 3 Zrotation Xrotation Yrotation
                JOINT rMid2
                {
                  OFFSET -3.10165 -0.590103 1.0647
                  CHANNELS 3 Zrotation Xrotation Yrotation
                  End Site
                  {
                    OFFSET -2.48547 -0.328903 0.83742
                  }
                }
              }
              JOINT rRing1
              {
                OFFSET -8.82822 0.546677 1.51678
                CHANNELS 3 Zrotation Xrotation Yrotation
                JOINT rRing2
                {
                  OFFSET -2.60934 -0.819778 -0.0198488
                  CHANNELS 3 Zrotation Xrotation Yrotation
                  End Site
                  {
                    OFFSET -2.33842 -0.294052 0.168128
                  }
                }
              }
              JOINT rPinky1
              {
                OFFSET -8.27202 -0.0477905 -0.4584
                CHANNELS 3 Zrotation Xrotation Yrotation
                JOINT rPinky2
                {
                  OFFSET -1.82734 -0.647385 -0.700984
                  CHANNELS 3 Zrotation Xrotation Yrotation
                  End Site
                  {
                    OFFSET -1.69225 -0.51767 -0.607171
                  }
                }
              }
            }
          }
        }
      }
      JOINT lCollar
      {
        OFFSET 2.68224 19.2634 -4.8768
        CHANNELS 3 Zrotation Xrotation Yrotation
        JOINT lShldr
        {
          OFFSET 8.77824 -1.95073 1.46304
          CHANNELS 3 Zrotation Xrotation Yrotation
          JOINT lForeArm
          {
            OFFSET 28.1742 -1.7115 0.48768
            CHANNELS 3 Zrotation Xrotation Yrotation
            JOINT lHand
            {
              OFFSET 22.5879 0.773209 7.07136
              CHANNELS 3 Zrotation Xrotation Yrotation
              JOINT lThumb1
              {
                OFFSET 1.2192 -0.487915 3.41376
                CHANNELS 3 Zrotation Xrotation Yrotation
                JOINT lThumb2
                {
                  OFFSET 3.37035 -0.52449 3.41376
                  CHANNELS 3 Zrotation Xrotation Yrotation
                  End Site
                  {
                    OFFSET 1.78271 -1.18214 1.43049
                  }
                }
              }
              JOINT lIndex1
              {
                OFFSET 7.75947 0.938293 5.60832
                CHANNELS 3 Zrotation Xrotation Yrotation
                JOINT lIndex2
                {
                  OFFSET 2.54057 -0.884171 1.56538
                  CHANNELS 3 Zrotation Xrotation Yrotation
                  End Site
                  {
                    OFFSET 1.62519 -0.234802 1.16502
                  }
                }
              }
              JOINT lMid1
              {
                OFFSET 8.24714 1.18213 3.41376
                CHANNELS 3 Zrotation Xrotation Yrotation
                JOINT lMid2
                {
                  OFFSET 3.10165 -0.590103 1.0647
                  CHANNELS 3 Zrotation Xrotation Yrotation
                  End Site
                  {
                    OFFSET 2.48547 -0.328903 0.83742
                  }
                }
              }
              JOINT lRing1
              {
                OFFSET 8.82822 0.546677 1.51678
                CHANNELS 3 Zrotation Xrotation Yrotation
                JOINT lRing2
                {
                  OFFSET 2.60934 -0.819778 -0.0198488
                  CHANNELS 3 Zrotation Xrotation Yrotation
                  End Site
                  {
                    OFFSET 2.33842 -0.294052 0.168128
                  }
                }
              }
              JOINT lPinky1
              {
                OFFSET 8.27202 -0.0477905 -0.4584
                CHANNELS 3 Zrotation Xrotation Yrotation
                JOINT lPinky2
                {
                  OFFSET 1.82734 -0.647385 -0.700984
                  CHANNELS 3 Zrotation Xrotation Yrotation
                  End Site
                  {
                    OFFSET 1.69225 -0.51767 -0.607171
                  }
                }
              }
            }
          }
        }
      }
    }
  }
  JOINT rButtock
  {
    OFFSET -8.77824 4.35084 1.2192
    CHANNELS 3 Zrotation Xrotation Yrotation
    JOINT rThigh
    {
      OFFSET 0 -1.70687 -2.19456
      CHANNELS 3 Zrotation Xrotation Yrotation
      JOINT rShin
      {
        OFFSET 0 -36.8199 0.73152
        CHANNELS 3 Zrotation Xrotation Yrotation
        JOINT rFoot
        {
          OFFSET 0.73152 -45.1104 -5.12064
          CHANNELS 3 Zrotation Xrotation Yrotation
          End Site
          {
            OFFSET -1.1221 -3.69964 12.103
          }
        }
      }
    }
  }
  JOINT lButtock
  {
    OFFSET 8.77824 4.35084 1.2192
    CHANNELS 3 Zrotation Xrotation Yrotation
    JOINT lThigh
    {
      OFFSET 0 -1.70687 -2.19456
      CHANNELS 3 Zrotation Xrotation Yrotation
      JOINT lShin
      {
        OFFSET 0 -36.8199 0.73152
        CHANNELS 3 Zrotation Xrotation Yrotation
        JOINT lFoot
        {
          OFFSET -0.73152 -45.1104 -5.12064
          CHANNELS 3 Zrotation Xrotation Yrotation
          End Site
          {
            OFFSET 1.1221 -3.69964 12.103
          }
        }
      }
    }
  }
}
MOTION
Frames:	4
Frame Time:	0.00833333
4.1983 32.7717 -20.0685 -5.3 3.2919 7.1129 -1.37803 58.7345 23.1966 1.68437 0.131989 5.68093 -3.72909 0.0552559 -7.2848 -5.88137 4.24955 -12.5414 -0.0 0.0 0.0 -0.0 0.0 0.0 1.28894e-13 6.88332e-14 1.48044e-14 45.841 -3.27111 54.6398 -14.5701 -7.42366 26.7085 -0.253056 14.1771 2.03458 1.99263e-09 -9.63562e-10 2.7238e-11 3.44589e-09 -1.63168e-09 2.08438e-11 1.99264e-09 -9.63562e-10 2.72219e-11 7.73091 5.47488 0.417314 1.99263e-09 -9.63565e-10 2.72373e-11 2.90554 0.965183 0.102902 1.99264e-09 -9.63565e-10 2.7238e-11 10.2786 0.731801 0.0259123 1.99263e-09 -9.63564e-10 2.72467e-11 2.22167 -0.733487 -0.20892 1.28813e-13 6.8874e-14 1.45152e-14 -63.9283 63.3557 -10.49 28.4288 -36.1672 -77.2895 0.212461 13.0177 -1.86199 -2.1865e-09 -4.47262e-11 1.76592e-09 -3.76067e-09 -4.94732e-11 3.07342e-09 -2.18651e-09 -4.47287e-11 1.76593e-09 -7.73091 5.47488 -0.417314 -2.1865e-09 -4.47379e-11 1.76591e-09 -2.90554 0.965183 -0.102902 -2.18651e-09 -4.4735e-11 1.76591e-09 -10.2786 0.731801 -0.0259123 -2.1865e-09 -4.4729e-11 1.76592e-09 -2.22167 -0.733487 0.20892 -2.03217e-16 0.0 -3.88251e-19 -103.829 -22.209 -109.489 -177.49 38.803 177.546 11.6204 -8.34734 22.0792 2.03217e-16 0.0 3.88251e-19 126.909 -40.1325 117.912 177.303 39.9456 -176.192 -16.6825 -9.66802 -31.2229
4.19259 32.7316 -20.0409 -5.3732 3.2948 7.1742 -1.3547 58.6997 23.2091 1.73895 0.113324 5.68811 -3.74622 0.0640801 -7.2739 -5.94346 4.26023 -12.5132 -0.0 0.0 0.0 -0.0 0.0 0.0 1.27257e-13 9.22175e-14 1.52567e-14 45.5903 -3.09932 54.4983 -14.6427 -7.48493 26.8565 -0.258431 14.3236 2.0565 2.78609e-09 -1.32193e-09 1.2561e-10 4.81899e-09 -2.23696e-09 1.7986e-10 2.7861e-09 -1.32193e-09 1.25594e-10 7.73091 5.47488 0.417314 2.78609e-09 -1.32194e-09 1.2561e-10 2.90554 0.965183 0.102902 2.7861e-09 -1.32194e-09 1.25608e-10 10.2786 0.731801 0.0259123 2.78609e-09 -1.32194e-09 1.25616e-10 2.22167 -0.733487 -0.20892 1.27196e-13 9.22539e-14 1.49585e-14 -63.9006 63.4368 -10.5251 28.4286 -36.1819 -77.3143 0.212873 13.0302 -1.86384 -2.93939e-09 -1.66152e-11 2.35974e-09 -5.05647e-09 9.15682e-12 4.10835e-09 -2.93939e-09 -1.66172e-11 2.35975e-09 -7.73091 5.47488 -0.417314 -2.93939e-09 -1.66283e-11 2.35973e-09 -2.90554 0.965183 -0.102902 -2.93939e-09 -1.66247e-11 2.35973e-09 -10.2786 0.731801 -0.0259123 -2.93938e-09 -1.6618e-11 2.35973e-09 -2.22167 -0.733487 0.20892 -2.03217e-16 0.0 -3.88251e-19 -103.824 -22.1358 -109.542 -177.492 38.7408 177.556 11.5913 -8.36073 21.9737 2.03217e-16 0.0 3.88251e-19 127.209 -40.0304 118.055 177.304 39.8582 -176.185 -16.6978 -9.43301 -31.4034
4.2031 32.7189 -19.9952 -5.3544 3.2715 7.0861 -1.4094 58.7062 23.2364 1.73184 0.097944 5.68701 -3.72424 0.0946731 -7.26018 -5.92106 4.2704 -12.4929 -0.0 0.0 0.0 -0.0 0.0 0.0 1.13732e-13 1.35657e-13 1.21084e-14 45.4375 -2.93208 54.3793 -14.7193 -7.54977 27.0129 -0.264252 14.4797 2.07991 3.2155e-09 -1.5088e-09 1.25696e-10 5.56117e-09 -2.55082e-09 1.73153e-10 3.21551e-09 -1.5088e-09 1.25682e-10 7.73091 5.47488 0.417314 3.2155e-09 -1.5088e-09 1.25698e-10 2.90554 0.965183 0.102902 3.2155e-09 -1.5088e-09 1.25694e-10 10.2786 0.731801 0.0259123 3.2155e-09 -1.5088e-09 1.25701e-10 2.22167 -0.733487 -0.20892 1.1366e-13 1.35683e-13 1.18044e-14 -63.7674 63.4763 -10.6153 28.4286 -36.1785 -77.3087 0.214161 13.0689 -1.86957 -3.43909e-09 6.66551e-11 2.8457e-09 -5.91574e-09 1.59935e-10 4.95386e-09 -3.4391e-09 6.66545e-11 2.84571e-09 -7.73091 5.47488 -0.417314 -3.4391e-09 6.66439e-11 2.84569e-09 -2.90554 0.965183 -0.102902 -3.4391e-09 6.66485e-11 2.84569e-09 -10.2786 0.731801 -0.0259123 -3.43909e-09 6.66549e-11 2.84569e-09 -2.22167 -0.733487 0.20892 -2.03217e-16 0.0 -3.88251e-19 -103.881 -22.0696 -109.546 -177.494 38.6797 177.561 11.5831 -8.34894 21.9282 2.03217e-16 0.0 3.88251e-19 127.416 -40.0491 118.167 177.305 39.7923 -176.186 -16.6775 -9.21085 -31.5277
4.20532 32.7103 -19.944 -5.3859 3.2552 6.9703 -1.51361 58.7381 23.2758 1.68605 0.0847315 5.68132 -3.68129 0.135392 -7.24506 -5.83969 4.28401 -12.4772 -0.0 0.0 0.0 -0.0 0.0 0.0 8.82128e-14 1.95599e-13 4.27698e-15 45.3471 -2.7696 54.2778 -14.7951 -7.61434 27.1677 -0.270806 14.6519 2.10578 3.50615e-09 -1.64285e-09 8.03362e-11 6.06267e-09 -2.77505e-09 8.92345e-11 3.50615e-09 -1.64285e-09 8.03247e-11 7.73091 5.47488 0.417314 3.50615e-09 -1.64286e-09 8.034e-11 2.90554 0.965183 0.102902 3.50615e-09 -1.64285e-09 8.03333e-11 10.2786 0.731801 0.0259123 3.50615e-09 -1.64285e-09 8.03406e-11 2.22167 -0.733487 -0.20892 8.8115e-14 1.95609e-13 3.96948e-15 -63.5665 63.4881 -10.7434 28.4289 -36.162 -77.2811 0.215924 13.1214 -1.87736 -3.86042e-09 1.90718e-10 3.33173e-09 -6.63963e-09 3.8032e-10 5.79857e-09 -3.86043e-09 1.9072e-10 3.33173e-09 -7.73091 5.47488 -0.417314 -3.86043e-09 1.90711e-10 3.33171e-09 -2.90554 0.965183 -0.102902 -3.86043e-09 1.90717e-10 3.33172e-09 -10.2786 0.731801 -0.0259123 -3.86042e-09 1.90722e-10 3.33172e-09 -2.22167 -0.733487 0.20892 -2.03217e-16 0.0 -3.88251e-19 -103.973 -22.0198 -109.527 -177.495 38.6221 177.566 11.5808 -8.32427 21.906 2.03217e-16 0.0 3.88251e-19 127.575 -40.1495 118.267 177.307 39.7433 -176.193 -16.6296 -8.98091 -31.6247
